<?xml version="1.0" standalone="no"?>
<!DOCTYPE svg PUBLIC "-//W3C//DTD SVG 20010904//EN"
 "http://www.w3.org/TR/2001/REC-SVG-20010904/DTD/svg10.dtd">
<svg version="1.0" xmlns="http://www.w3.org/2000/svg"
 width="700.000000pt" height="700.000000pt" viewBox="0 0 700.000000 700.000000"
 preserveAspectRatio="xMidYMid meet">
<metadata>
Created by potrace 1.11, written by Peter Selinger 2001-2013
</metadata>
<g transform="translate(0.000000,700.000000) scale(0.100000,-0.100000)"
fill="#000000" stroke="none">
<path d="M2358 6980 c-235 -49 -419 -164 -566 -352 -128 -164 -192 -345 -197
-558 -4 -133 13 -236 57 -357 26 -73 113 -228 150 -267 173 -187 338 -288 541
-333 75 -17 259 -23 338 -11 l46 7 68 -182 c37 -100 78 -210 91 -243 l23 -62
-62 -38 c-304 -185 -520 -486 -591 -825 -5 -24 -10 -26 -48 -24 -24 2 -90 6
-148 9 -58 3 -143 9 -190 12 -113 9 -174 12 -237 13 -49 1 -53 3 -58 29 -19
87 -31 125 -68 202 -45 95 -101 173 -173 240 -50 47 -137 110 -150 110 -4 0
-15 6 -23 13 -30 25 -168 72 -246 83 -48 7 -196 7 -243 0 -250 -39 -481 -212
-590 -439 -62 -128 -74 -183 -77 -341 -3 -175 34 -302 129 -445 240 -361 717
-464 1081 -233 152 96 276 253 330 420 10 28 20 50 24 48 3 -2 74 -7 156 -11
83 -4 168 -8 190 -10 36 -4 273 -17 302 -18 15 0 20 -16 27 -77 12 -104 46
-236 87 -330 26 -63 99 -203 109 -210 3 -3 21 -26 38 -51 17 -26 54 -71 82
-102 27 -30 50 -58 50 -62 0 -5 -362 -493 -422 -570 -5 -5 -43 -55 -84 -110
-42 -55 -81 -99 -88 -97 -6 1 -20 6 -31 11 -11 5 -36 16 -55 24 -130 57 -352
79 -501 51 -327 -62 -587 -267 -714 -564 -183 -427 -32 -922 358 -1174 88 -57
203 -108 283 -126 27 -7 58 -14 69 -17 38 -10 260 -11 310 -2 28 5 59 11 70
13 81 15 248 89 334 148 60 42 199 181 236 238 165 249 211 538 130 815 -30
106 -108 253 -167 319 -65 70 -82 32 162 358 121 161 227 302 236 313 8 11 43
57 75 102 l60 81 92 -43 c124 -58 225 -91 347 -113 81 -15 322 -12 415 5 229
42 459 157 629 315 l50 46 146 -111 c80 -61 181 -138 225 -172 44 -34 127 -97
185 -141 58 -43 110 -83 116 -89 6 -5 92 -71 189 -145 98 -74 189 -144 202
-155 l23 -20 -25 -61 c-120 -294 -41 -638 198 -863 188 -176 446 -247 717
-196 84 16 223 83 308 147 191 147 300 359 307 598 8 239 -77 450 -244 608
-113 108 -275 189 -421 210 -78 11 -232 5 -305 -12 -82 -20 -231 -90 -296
-140 l-45 -35 -55 41 c-58 44 -184 140 -475 364 -100 76 -264 201 -363 278
-100 76 -184 142 -187 147 -2 4 11 39 30 76 55 111 86 198 111 317 20 94 23
134 21 266 -4 205 -39 354 -124 524 -28 58 -32 71 -20 80 8 6 81 60 164 121
82 60 163 119 179 132 41 32 43 33 105 78 30 21 106 77 168 123 101 74 116 82
132 70 205 -150 323 -192 530 -191 283 3 547 162 683 413 66 121 89 210 93
350 3 135 -4 186 -41 296 -106 315 -431 538 -766 528 -208 -6 -380 -78 -533
-222 -226 -214 -301 -537 -196 -840 12 -35 18 -67 14 -71 -10 -8 -62 -46 -389
-286 -126 -93 -255 -187 -286 -211 l-57 -42 -28 30 c-159 167 -445 315 -682
353 -79 13 -97 14 -197 15 -101 1 -129 -1 -243 -21 -35 -6 -64 -10 -66 -8 -2
2 -19 47 -39 99 -19 52 -58 156 -86 230 -28 74 -51 140 -51 146 0 6 26 28 57
49 73 48 197 173 245 246 122 186 170 352 163 574 -4 135 -30 244 -91 374
-123 263 -379 463 -669 522 -95 20 -282 19 -377 -1z"/>
</g>
</svg>
